<?xml version="1.0" encoding="UTF-8"?>
<svg version="1.1" xmlns="http://www.w3.org/2000/svg" width="325" height="292">
<path d="M0 0 C0.99336868 0.00031723 0.99336868 0.00031723 2.00680542 0.00064087 C12.66523786 0.03457929 22.32529639 0.96701978 32.4375 4.375 C33.55253906 4.73722656 34.66757813 5.09945312 35.81640625 5.47265625 C48.59574976 10.0092463 60.25760217 16.40984628 70.4375 25.375 C71.25605469 26.05046875 72.07460937 26.7259375 72.91796875 27.421875 C91.59460606 43.28977771 104.13241319 67.12338899 107.4375 91.375 C107.54707031 92.15488281 107.65664063 92.93476563 107.76953125 93.73828125 C111.12130772 121.75913257 103.70818659 150.59956 86.625 173.125 C68.53224418 196.02537844 43.13266794 211.45215614 13.91015625 214.984375 C-5.41396532 216.8733246 -28.28602528 215.88631213 -44.5 204.0625 C-50.55452433 198.95573731 -55.09129503 193.71274808 -55.80078125 185.67578125 C-56.03373085 176.29649457 -54.02011198 168.96938942 -47.44256592 162.05307007 C-40.33779136 155.71163842 -32.67631203 154.65813582 -23.484375 154.7734375 C-22.35533752 154.76543121 -21.22630005 154.75742493 -20.06304932 154.74917603 C-16.47916111 154.72625434 -12.89641676 154.7355 -9.3125 154.75 C24.670458 154.93212689 24.670458 154.93212689 53.25390625 137.82421875 C65.31040827 124.30109394 68.43851705 109.51665879 67.69042969 91.95898438 C67.08081237 85.73100206 64.71669381 80.15438429 62.4375 74.375 C62.4375 73.715 62.4375 73.055 62.4375 72.375 C69.3675 72.375 76.2975 72.375 83.4375 72.375 C79.29181077 63.4458232 74.68319261 55.97690015 68.4375 48.375 C68.07023804 47.83652435 67.70297607 47.29804871 67.32458496 46.74325562 C64.25965702 44.52098956 60.83922401 44.95895999 57.19335938 44.98681641 C56.35227631 44.98155945 55.51119324 44.97630249 54.6446228 44.97088623 C51.85664419 44.95765682 49.06923473 44.96644097 46.28125 44.9765625 C44.33890677 44.97454109 42.39656427 44.9716291 40.45422363 44.96786499 C36.37533369 44.96343641 32.29664053 44.96988427 28.21777344 44.98388672 C23.01396547 45.000888 17.81062481 44.9911986 12.60683441 44.97316933 C8.5899715 44.96226803 4.5732171 44.96580834 0.55635071 44.9735527 C-1.36040808 44.97554196 -3.27717701 44.97314065 -5.19392395 44.96611404 C-23.83385734 44.91282832 -39.36926965 47.64449886 -53.37890625 61.09375 C-65.27782649 73.52482231 -69.23010407 87.76343975 -68.875 104.6015625 C-68.4146578 114.28792958 -65.15418804 122.29858662 -59.734375 130.25390625 C-58.5625 132.375 -58.5625 132.375 -58.5625 136.375 C-60.03125 137.76171875 -60.03125 137.76171875 -62.0625 139.0625 C-73.95309321 147.4867542 -80.05539157 159.46962273 -83.5625 173.375 C-89.90656643 171.26031119 -93.4816756 161.52240475 -96.5 155.703125 C-109.58283618 129.49232744 -110.79451191 99.90769433 -101.9375 72.25 C-96.89996683 57.51214576 -88.6101353 45.15392015 -78.5625 33.375 C-77.99273437 32.70210937 -77.42296875 32.02921875 -76.8359375 31.3359375 C-63.19165201 16.57212089 -43.80183331 7.19242626 -24.5625 2.375 C-23.8403833 2.18953613 -23.1182666 2.00407227 -22.37426758 1.81298828 C-14.94337804 0.10268602 -7.60091371 -0.01004716 0 0 Z " fill="#4C8CFC" transform="translate(176.5625,41.625)"/>
<path d="M0 0 C2.54823284 0.04749324 5.09230077 0.04104846 7.64086914 0.02783203 C23.39746927 0.08182166 23.39746927 0.08182166 30.35375977 4.67236328 C31.17489258 5.20216797 31.99602539 5.73197266 32.84204102 6.27783203 C38.95368644 11.57808128 41.98734164 17.1659138 43.22875977 25.17236328 C43.75824726 32.99248628 41.74535611 39.23853863 37.18969727 45.59423828 C31.47110016 52.06720352 24.27033182 55.30393968 15.68847656 55.94702148 C8.26709691 55.99691703 8.26709691 55.99691703 5.27587891 55.98803711 C3.05719429 55.98488591 0.83985742 56.00834955 -1.37866211 56.03369141 C-13.00033126 56.08790304 -22.05589059 55.17606382 -30.73217773 46.86767578 C-36.16489386 40.63668301 -38.01332247 33.76788502 -37.92749023 25.65673828 C-37.33513053 19.37114366 -34.73506485 12.67369716 -30.33300781 8.04003906 C-20.95476052 0.43590803 -11.53245063 -0.22986791 0 0 Z " fill="#4C8BFC" transform="translate(173.646240234375,113.32763671875)"/>
<path d="M0 0 C0.66 0 1.32 0 2 0 C2.185625 0.9590625 2.185625 0.9590625 2.375 1.9375 C2.684375 2.9584375 2.684375 2.9584375 3 4 C3.66 4.33 4.32 4.66 5 5 C5 5.66 5 6.32 5 7 C6.32 7 7.64 7 9 7 C9.26554687 7.99902344 9.53109375 8.99804688 9.8046875 10.02734375 C10.16103998 11.33084361 10.51783368 12.6342229 10.875 13.9375 C11.04902344 14.59685547 11.22304687 15.25621094 11.40234375 15.93554688 C11.87476237 17.641503 12.43215028 19.32339261 13 21 C13.66 21.33 14.32 21.66 15 22 C14.773125 21.236875 14.54625 20.47375 14.3125 19.6875 C14.209375 18.800625 14.10625 17.91375 14 17 C15.4375 15.1875 15.4375 15.1875 17 14 C18.20577428 18.94367454 17.6290678 22.20862412 16 27 C8.97701415 24.65900472 4.06367772 11.46162496 0.8125 5.0234375 C0 3 0 3 0 0 Z " fill="#588CEC" transform="translate(77,188)"/>
<path d="M0 0 C0.33 0.66 0.66 1.32 1 2 C0.34 2 -0.32 2 -1 2 C-1 2.66 -1 3.32 -1 4 C12.2 4 25.4 4 39 4 C38.505 2.515 38.505 2.515 38 1 C40.31 1.33 42.62 1.66 45 2 C38.53692349 7.50558369 30.11368583 6.21925183 22.07299805 6.24023438 C19.83669191 6.24989549 17.60132356 6.28093284 15.36523438 6.3125 C-0.11071219 6.42726928 -0.11071219 6.42726928 -7 3 C-7.33 2.34 -7.66 1.68 -8 1 C-7.05125 1.020625 -6.1025 1.04125 -5.125 1.0625 C-2.09333717 1.22551826 -2.09333717 1.22551826 0 0 Z " fill="#5A8AE4" transform="translate(157,163)"/>
<path d="M0 0 C5.75969855 6.51096358 4.42875108 16.63725038 4.140625 24.86865234 C3.82279293 29.6857947 3.06611588 34.61335844 1 39 C-1.109375 40.31640625 -1.109375 40.31640625 -3 41 C-2.71125 40.22140625 -2.4225 39.4428125 -2.125 38.640625 C2.05991603 26.02775308 2.16248743 13.06283059 0 0 Z " fill="#5B88E2" transform="translate(243,124)"/>
<path d="M0 0 C3.875 0.875 3.875 0.875 5 2 C7.51880517 2.15988491 10.01342266 2.25934225 12.53515625 2.31640625 C13.66503212 2.3475779 13.66503212 2.3475779 14.81773376 2.37937927 C17.2325599 2.44495425 19.64749798 2.50379621 22.0625 2.5625 C23.69597529 2.6056777 25.3294391 2.64929173 26.96289062 2.69335938 C30.97514464 2.80064362 34.98751164 2.90188821 39 3 C39 3.33 39 3.66 39 4 C25.32263184 6.02627676 11.5731438 5.44403875 -2 3 C-1.34 2.01 -0.68 1.02 0 0 Z " fill="#5D8DE4" transform="translate(156,252)"/>
<path d="M0 0 C0.66 1.32 1.32 2.64 2 4 C1.01 4 0.02 4 -1 4 C-2.69287785 4.95495674 -4.35857037 5.9590934 -6 7 C-8.87268516 8.63527788 -11.03017132 9.27272163 -14.328125 9.4140625 C-15.12734375 9.45273438 -15.9265625 9.49140625 -16.75 9.53125 C-17.9875 9.57765625 -17.9875 9.57765625 -19.25 9.625 C-20.51070312 9.68300781 -20.51070312 9.68300781 -21.796875 9.7421875 C-23.86423382 9.83615836 -25.93208627 9.91915564 -28 10 C-28 9.67 -28 9.34 -28 9 C-27.12859375 8.85304687 -26.2571875 8.70609375 -25.359375 8.5546875 C-17.5378595 7.08180471 -11.33859973 5.05904344 -4.328125 1.20703125 C-2 0 -2 0 0 0 Z " fill="#568AE7" transform="translate(222,187)"/>
<path d="M0 0 C0.66 0.33 1.32 0.66 2 1 C-1.1882263 6.12745673 -3.98720976 10.47749875 -9 14 C-10.0173873 14.98230498 -11.02596117 15.97469597 -12 17 C-12.66 16.67 -13.32 16.34 -14 16 C-9.59802297 10.34669955 -5.19861358 4.9386829 0 0 Z " fill="#588DED" transform="translate(105,68)"/>
<path d="M0 0 C0.98608749 0.00212242 0.98608749 0.00212242 1.99209595 0.00428772 C4.07029981 0.00983863 6.14839177 0.0223816 8.2265625 0.03515625 C9.64452968 0.04017761 11.06249857 0.0447394 12.48046875 0.04882812 C15.93753572 0.05979188 19.39453817 0.07702204 22.8515625 0.09765625 C22.8515625 0.42765625 22.8515625 0.75765625 22.8515625 1.09765625 C13.2815625 1.42765625 3.7115625 1.75765625 -6.1484375 2.09765625 C-6.4784375 2.75765625 -6.8084375 3.41765625 -7.1484375 4.09765625 C-7.6846875 3.93265625 -8.2209375 3.76765625 -8.7734375 3.59765625 C-11.60729759 3.00105413 -14.2604181 3.03201945 -17.1484375 3.09765625 C-11.75451269 -0.01422345 -6.09901471 -0.02606417 0 0 Z " fill="#5A88E3" transform="translate(169.1484375,41.90234375)"/>
<path d="M0 0 C2.8740877 2.8740877 3.47401965 6.08436851 4 10 C3.94393017 15.27857439 3.38693814 20.22612373 1 25 C0.67 25 0.34 25 0 25 C-0.22174933 23.54364629 -0.42698698 22.08477044 -0.625 20.625 C-0.74101562 19.81289062 -0.85703125 19.00078125 -0.9765625 18.1640625 C-0.98429688 17.44992188 -0.99203125 16.73578125 -1 16 C-0.34 15.34 0.32 14.68 1 14 C1.32752234 11.28545044 1.1308425 8.74769241 1 6 C0.67 5.67 0.34 5.34 0 5 C-0.04063832 3.33382885 -0.042721 1.66611905 0 0 Z " fill="#598AE4" transform="translate(213,129)"/>
<path d="M0 0 C1.32 1.32 2.64 2.64 4 4 C3.67 4.99 3.34 5.98 3 7 C1.88625 6.938125 0.7725 6.87625 -0.375 6.8125 C-2.169375 6.9053125 -2.169375 6.9053125 -4 7 C-4.99 8.485 -4.99 8.485 -6 10 C-8.625 10.6875 -8.625 10.6875 -11 11 C-7.33333333 7.33333333 -3.66666667 3.66666667 0 0 Z " fill="#5589EE" transform="translate(233,176)"/>
<path d="M0 0 C1.875 0.3125 1.875 0.3125 4 1 C6.29633824 4.44450737 6.54016485 6.93812283 7 11 C7.66 11 8.32 11 9 11 C8.67 11.99 8.34 12.98 8 14 C6.66072279 12.54712339 5.32873153 11.08752741 4 9.625 C3.2575 8.81289062 2.515 8.00078125 1.75 7.1640625 C0 5 0 5 0 3 C-0.66 2.67 -1.32 2.34 -2 2 C-1.34 2 -0.68 2 0 2 C0 1.34 0 0.68 0 0 Z " fill="#508AFB" transform="translate(242,82)"/>
<path d="M0 0 C0.66 0.33 1.32 0.66 2 1 C0.2487612 4.5024776 -3.94350198 5.23204319 -7.43359375 6.68359375 C-10.26803181 7.87427697 -10.26803181 7.87427697 -12 11 C-15.625 12.1875 -15.625 12.1875 -19 13 C-15.30131815 8.98428828 -11.56679934 6.27786922 -6.8125 3.625 C-6.18408203 3.25761719 -5.55566406 2.89023437 -4.90820312 2.51171875 C-3.30935628 1.60542054 -1.65745253 0.79406471 0 0 Z " fill="#5C8EE6" transform="translate(131,51)"/>
<path d="M0 0 C1.78582287 3.38148868 3.14488935 6.8638088 4.5 10.4375 C5.96980215 14.30469286 7.45114455 18.16371451 9 22 C4.71913573 19.70667985 3.57364897 16.24906399 1.83203125 11.9609375 C1.15897636 10.03406244 1.15897636 10.03406244 0 9 C-0.07179964 7.48071962 -0.08392007 5.95832518 -0.0625 4.4375 C-0.05347656 3.61121094 -0.04445313 2.78492188 -0.03515625 1.93359375 C-0.02355469 1.29550781 -0.01195313 0.65742188 0 0 Z " fill="#5B89E0" transform="translate(107,151)"/>
<path d="M0 0 C6.6 0 13.2 0 20 0 C20 0.33 20 0.66 20 1 C12.08 1.495 12.08 1.495 4 2 C4 4.64 4 7.28 4 10 C2 7 2 7 0 0 Z " fill="#5E8BE1" transform="translate(239,114)"/>
<path d="M0 0 C0.99 0.66 1.98 1.32 3 2 C1.77946141 5.66161578 0.63217696 6.16270474 -2.5625 8.1875 C-3.38878906 8.71730469 -4.21507813 9.24710938 -5.06640625 9.79296875 C-5.70449219 10.19128906 -6.34257813 10.58960938 -7 11 C-7 9.68 -7 8.36 -7 7 C-6.01 7 -5.02 7 -4 7 C-3.71125 6.21625 -3.4225 5.4325 -3.125 4.625 C-2 2 -2 2 0 0 Z " fill="#5889E6" transform="translate(116,173)"/>
<path d="M0 0 C1.32 0.33 2.64 0.66 4 1 C1.03 3.97 -1.94 6.94 -5 10 C-6 6 -6 6 -4.75 3.875 C-3 2 -3 2 0 0 Z " fill="#588CEC" transform="translate(256,218)"/>
<path d="M0 0 C2.475 0.99 2.475 0.99 5 2 C2.33333333 4.66666667 -0.33333333 7.33333333 -3 10 C-3.66 9.67 -4.32 9.34 -5 9 C-4.01 7.02 -3.02 5.04 -2 3 C-1.34 3 -0.68 3 0 3 C0 2.01 0 1.02 0 0 Z " fill="#568DEF" transform="translate(245,226)"/>
<path d="M0 0 C0.66 0.33 1.32 0.66 2 1 C1.01 2.485 1.01 2.485 0 4 C-0.99 4 -1.98 4 -3 4 C-3.33 5.32 -3.66 6.64 -4 8 C-4.99 8 -5.98 8 -7 8 C-7 9.32 -7 10.64 -7 12 C-7.99 12 -8.98 12 -10 12 C-8.62968895 6.34746692 -4.32310587 3.4886459 0 0 Z " fill="#5A8BE4" transform="translate(134,200)"/>
<path d="M0 0 C-0.99 0 -1.98 0 -3 0 C-3.66 1.65 -4.32 3.3 -5 5 C-7.97 4.67 -10.94 4.34 -14 4 C-11.97803833 1.97803833 -10.74135514 1.32448642 -8.125 0.3125 C-7.44695312 0.04050781 -6.76890625 -0.23148438 -6.0703125 -0.51171875 C-3.68892218 -1.07336741 -2.29569809 -0.76694846 0 0 Z " fill="#598CED" transform="translate(148,47)"/>
<path d="M0 0 C0.99 0.66 1.98 1.32 3 2 C2.67 2.99 2.34 3.98 2 5 C2.99 5.33 3.98 5.66 5 6 C-0.45479185 5.43179252 -4.91059256 4.05362055 -10 2 C-10 1.67 -10 1.34 -10 1 C-6.14354879 0.77963136 -3.50776784 1.39644899 0 3 C0 2.01 0 1.02 0 0 Z " fill="#578CEE" transform="translate(149,248)"/>
<path d="M0 0 C0.33 0.99 0.66 1.98 1 3 C1.99 3.33 2.98 3.66 4 4 C2.35 6.31 0.7 8.62 -1 11 C-1.33 10.34 -1.66 9.68 -2 9 C-2.66 8.67 -3.32 8.34 -4 8 C-2.68 8 -1.36 8 0 8 C-0.2784375 6.2984375 -0.2784375 6.2984375 -0.5625 4.5625 C-0.706875 3.386875 -0.85125 2.21125 -1 1 C-0.67 0.67 -0.34 0.34 0 0 Z " fill="#578DEE" transform="translate(263,205)"/>
<path d="M0 0 C1.98 0.66 3.96 1.32 6 2 C2.53258866 4.95749791 -0.86873527 7.07848152 -5 9 C-5 8.01 -5 7.02 -5 6 C-4.01 6 -3.02 6 -2 6 C-2 5.01 -2 4.02 -2 3 C-1.34 2.67 -0.68 2.34 0 2 C0 1.34 0 0.68 0 0 Z " fill="#598BE8" transform="translate(132,89)"/>
<path d="M0 0 C0.33 0.66 0.66 1.32 1 2 C0.00390625 4.6015625 0.00390625 4.6015625 -1.4375 7.625 C-1.91058594 8.62789062 -2.38367188 9.63078125 -2.87109375 10.6640625 C-3.24363281 11.43492188 -3.61617188 12.20578125 -4 13 C-4.33 13 -4.66 13 -5 13 C-5.33 10.03 -5.66 7.06 -6 4 C-4.68 4.33 -3.36 4.66 -2 5 C-1.34 3.35 -0.68 1.7 0 0 Z " fill="#5D8BE6" transform="translate(114,111)"/>
<path d="M0 0 C0.99 0.33 1.98 0.66 3 1 C2 4 2 4 0.125 5.1875 C-2 6 -2 6 -5 6 C-3.63016497 2.83884224 -3.0109362 2.0072908 0 0 Z " fill="#598CEF" transform="translate(148,118)"/>
<path d="M0 0 C1.98 0.66 3.96 1.32 6 2 C6.33 3.65 6.66 5.3 7 7 C7.66 7 8.32 7 9 7 C8.67 7.99 8.34 8.98 8 10 C6.66370254 8.52351062 5.33103329 7.0437367 4 5.5625 C3.2575 4.73878906 2.515 3.91507812 1.75 3.06640625 C0 1 0 1 0 0 Z " fill="#558BE3" transform="translate(242,86)"/>
<path d="M0 0 C1.32 0.66 2.64 1.32 4 2 C2.02 4.64 0.04 7.28 -2 10 C-2.33 9.01 -2.66 8.02 -3 7 C-2.34 6.34 -1.68 5.68 -1 5 C-0.35232207 2.42938689 -0.35232207 2.42938689 0 0 Z " fill="#588BE7" transform="translate(102,186)"/>
<path d="M0 0 C0.33 0 0.66 0 1 0 C1.05399736 1.45792884 1.09279177 2.91642712 1.125 4.375 C1.14820313 5.18710938 1.17140625 5.99921875 1.1953125 6.8359375 C1 9 1 9 -1 11 C-1.22174933 9.54364629 -1.42698698 8.08477044 -1.625 6.625 C-1.74101562 5.81289062 -1.85703125 5.00078125 -1.9765625 4.1640625 C-1.98429688 3.44992188 -1.99203125 2.73578125 -2 2 C-1.34 1.34 -0.68 0.68 0 0 Z " fill="#538AF1" transform="translate(214,143)"/>
<path d="M0 0 C1.8125 0.1875 1.8125 0.1875 4 1 C6.14197494 3.90696599 7 5.35521088 7 9 C5.83037314 7.69013727 4.66437056 6.3770374 3.5 5.0625 C2.8503125 4.33160156 2.200625 3.60070312 1.53125 2.84765625 C0 1 0 1 0 0 Z " fill="#5987E2" transform="translate(140,155)"/>
<path d="M0 0 C0.66 0.33 1.32 0.66 2 1 C0.02 3.97 0.02 3.97 -2 7 C-3.32 6.67 -4.64 6.34 -6 6 C-4.02 4.02 -2.04 2.04 0 0 Z " fill="#5C87E4" transform="translate(105,68)"/>
<path d="M0 0 C-0.99 0.33 -1.98 0.66 -3 1 C-2.67 1.99 -2.34 2.98 -2 4 C-5.875 2.25 -5.875 2.25 -7 0 C-3.86650268 -1.04449911 -3.01031744 -0.93423645 0 0 Z " fill="#588CEE" transform="translate(135,241)"/>
<path d="M0 0 C0.66 0.33 1.32 0.66 2 1 C2 3.31 2 5.62 2 8 C1.34 8 0.68 8 0 8 C-0.66 6.02 -1.32 4.04 -2 2 C-1.34 2 -0.68 2 0 2 C0 1.34 0 0.68 0 0 Z " fill="#568AEA" transform="translate(260,106)"/>
</svg>
